<?xml version="1.0" encoding="utf-8"?><!-- Uploaded to: SVG Repo, www.svgrepo.com, Generator: SVG Repo Mixer Tools -->
<svg width="24px" height="24px" viewBox="0 0 192 192" xmlns="http://www.w3.org/2000/svg" fill="none"><path fill="#BBBBBB" d="M108 108h23.226Z"/><path stroke="#BBBBBB" stroke-linecap="round" stroke-linejoin="round" stroke-width="12" d="M108 108h23.226"/><path fill="#BBBBBB" d="M148.646 108H168Z"/><path stroke="#BBBBBB" stroke-linecap="round" stroke-linejoin="round" stroke-width="12" d="M148.646 108H168"/><path fill="#BBBBBB" d="M108 128h11.613Z"/><path stroke="#BBBBBB" stroke-linecap="round" stroke-linejoin="round" stroke-width="12" d="M108 128h11.613"/><path fill="#BBBBBB" d="M137.032 128H168Z"/><path stroke="#BBBBBB" stroke-linecap="round" stroke-linejoin="round" stroke-width="12" d="M137.032 128H168"/><path fill="#BBBBBB" d="M108 148h23.226Z"/><path stroke="#BBBBBB" stroke-linecap="round" stroke-linejoin="round" stroke-width="12" d="M108 148h23.226"/><path fill="#BBBBBB" d="M148.646 148H168Z"/><path stroke="#BBBBBB" stroke-linecap="round" stroke-linejoin="round" stroke-width="12" d="M148.646 148H168"/><path fill="#BBBBBB" d="M108 168h5.806Z"/><path stroke="#BBBBBB" stroke-linecap="round" stroke-linejoin="round" stroke-width="12" d="M108 168h5.806"/><path fill="#BBBBBB" d="M131.226 168H168Z"/><path stroke="#BBBBBB" stroke-linecap="round" stroke-linejoin="round" stroke-width="12" d="M131.226 168H168"/><rect width="62" height="62" x="22" y="22" stroke="#BBBBBB" stroke-width="12" rx="10"/><rect width="62" height="62" x="22" y="108" stroke="#BBBBBB" stroke-width="12" rx="10"/><rect width="62" height="62" x="108" y="22" stroke="#BBBBBB" stroke-width="12" rx="10"/><rect width="22" height="22" x="42" y="42" fill="#BBBBBB" rx="3"/><rect width="22" height="22" x="42" y="128" fill="#BBBBBB" rx="3"/><rect width="22" height="22" x="128" y="42" fill="#BBBBBB" rx="3"/></svg>